<?xml version="1.0" encoding="UTF-8" standalone="no"?>
<!-- Created with Inkscape (http://www.inkscape.org/) -->

<svg
   xmlns:dc="http://purl.org/dc/elements/1.1/"
   xmlns:cc="http://creativecommons.org/ns#"
   xmlns:rdf="http://www.w3.org/1999/02/22-rdf-syntax-ns#"
   xmlns:svg="http://www.w3.org/2000/svg"
   xmlns="http://www.w3.org/2000/svg"
   xmlns:sodipodi="http://sodipodi.sourceforge.net/DTD/sodipodi-0.dtd"
   xmlns:inkscape="http://www.inkscape.org/namespaces/inkscape"
   width="812"
   height="812"
   viewBox="0 0 214.84166 214.84167"
   version="1.1"
   id="svg8"
   inkscape:version="0.92.3 (2405546, 2018-03-11)"
   sodipodi:docname="ic_launcher_mysicka.svg"
   inkscape:export-filename="/home/mkm/Projects/Mysicka/Mysicka/images/ic_launcher_mysicka.svg.png"
   inkscape:export-xdpi="8.738307"
   inkscape:export-ydpi="8.738307">
  <defs
     id="defs2">
    <inkscape:path-effect
       effect="skeletal"
       id="path-effect4639"
       is_visible="true"
       pattern="m 2.3547401,4.9999456 c 0,-2.76 2.2399983,-5.000000235533 4.9999995,-5.000000235533 2.7599984,0 4.9999974,2.240000235533 4.9999974,5.000000235533 0,2.76 -2.239999,5.0000003 -4.9999974,5.0000003 -2.7600012,0 -4.9999995,-2.2400003 -4.9999995,-5.0000003 z"
       copytype="single_stretched"
       prop_scale="0.26472639"
       scale_y_rel="false"
       spacing="0"
       normal_offset="0"
       tang_offset="0"
       prop_units="false"
       vertical_pattern="false"
       fuse_tolerance="0" />
    <inkscape:path-effect
       effect="bspline"
       id="path-effect4637"
       is_visible="true"
       weight="33.333333"
       steps="2"
       helper_size="0"
       apply_no_weight="true"
       apply_with_weight="true"
       only_selected="false" />
    <inkscape:path-effect
       effect="powerstroke"
       id="path-effect4633"
       is_visible="true"
       offset_points="0,0.13229166"
       sort_points="true"
       interpolator_type="CubicBezierJohan"
       interpolator_beta="0.2"
       start_linecap_type="zerowidth"
       linejoin_type="extrp_arc"
       miter_limit="4"
       end_linecap_type="zerowidth" />
    <inkscape:path-effect
       effect="bspline"
       id="path-effect4631"
       is_visible="true"
       weight="33.333333"
       steps="2"
       helper_size="0"
       apply_no_weight="true"
       apply_with_weight="true"
       only_selected="false" />
    <inkscape:path-effect
       effect="skeletal"
       id="path-effect4627"
       is_visible="true"
       pattern="m -1.0156812,0.35437647 c 0,-2.75999997 2.24,-4.99999997 5,-4.99999997 2.76,0 5,2.24 5,4.99999997 0,2.76000003 -2.24,5.00000003 -5,5.00000003 -2.76,0 -5,-2.24 -5,-5.00000003 z"
       copytype="single_stretched"
       prop_scale="0.26458333"
       scale_y_rel="false"
       spacing="0"
       normal_offset="0"
       tang_offset="0"
       prop_units="false"
       vertical_pattern="false"
       fuse_tolerance="0" />
    <inkscape:path-effect
       effect="bspline"
       id="path-effect4625"
       is_visible="true"
       weight="33.333333"
       steps="2"
       helper_size="0"
       apply_no_weight="true"
       apply_with_weight="true"
       only_selected="false" />
  </defs>
  <sodipodi:namedview
     id="base"
     pagecolor="#ffffff"
     bordercolor="#666666"
     borderopacity="1.0"
     inkscape:pageopacity="0.0"
     inkscape:pageshadow="2"
     inkscape:zoom="1.0332512"
     inkscape:cx="406"
     inkscape:cy="406"
     inkscape:document-units="px"
     inkscape:current-layer="layer1"
     showgrid="true"
     inkscape:window-width="1860"
     inkscape:window-height="1051"
     inkscape:window-x="0"
     inkscape:window-y="0"
     inkscape:window-maximized="1"
     units="px"
     showguides="true">
    <inkscape:grid
       type="xygrid"
       id="grid10" />
  </sodipodi:namedview>
  <metadata
     id="metadata5">
    <rdf:RDF>
      <cc:Work
         rdf:about="">
        <dc:format>image/svg+xml</dc:format>
        <dc:type
           rdf:resource="http://purl.org/dc/dcmitype/StillImage" />
        <dc:title></dc:title>
      </cc:Work>
    </rdf:RDF>
  </metadata>
  <g
     inkscape:label="Layer 1"
     inkscape:groupmode="layer"
     id="layer1"
     transform="translate(0,-82.158316)">
    <rect
       style="fill:#000036;fill-opacity:1;stroke:none;stroke-width:5.29166663;stroke-miterlimit:4;stroke-dasharray:none;stroke-opacity:1"
       id="rect39"
       width="209.02083"
       height="209.02081"
       x="2.6458333"
       y="85.333313"
       rx="35.665833"
       inkscape:export-xdpi="5.8255377"
       inkscape:export-ydpi="5.8255377" />
    <path
       style="fill:#ffffff;fill-opacity:1;stroke:#ffffff;stroke-width:1.32291663;stroke-miterlimit:4;stroke-dasharray:none;stroke-opacity:1"
       id="path4561"
       sodipodi:type="arc"
       sodipodi:cx="107.15625"
       sodipodi:cy="201.74998"
       sodipodi:rx="91.28125"
       sodipodi:ry="52.916664"
       sodipodi:start="3.1415927"
       sodipodi:end="0"
       d="m 15.875,201.74998 a 91.28125,52.916664 0 0 1 91.28125,-52.91666 91.28125,52.916664 0 0 1 91.28125,52.91666 h -91.28125 z" />
    <path
       style="fill:#ffffff;fill-opacity:1;stroke:#ffffff;stroke-width:5.05076265;stroke-miterlimit:4;stroke-dasharray:none;stroke-opacity:1"
       d="m 58.374601,444.18721 c 4.595742,-69.71748 70.247179,-132.74526 174.445149,-167.47372 40.3304,-13.44185 81.35743,-21.41608 129.80461,-25.22953 17.22971,-1.35621 67.13032,-1.34936 84.93567,0.0117 93.34161,7.13494 174.70554,34.18945 232.27713,77.23501 15.09561,11.2868 36.21287,32.33792 45.13981,44.99844 16.60339,23.54751 27.02724,52.44502 27.05523,75.00382 l 0.006,4.79823 H 404.89841 57.758655 Z"
       id="path4565"
       inkscape:connector-curvature="0"
       transform="matrix(0.26458333,0,0,0.26458333,0,82.158316)" />
    <path
       style="fill:#ffffff;fill-opacity:1;stroke:#ffffff;stroke-width:5.05076265;stroke-miterlimit:4;stroke-dasharray:none;stroke-opacity:1"
       d="M 56.339283,445.67967 C 62.525571,344.13634 190.763,262.34873 364.10864,249.3897 c 20.98297,-1.56865 81.44086,-0.646 101.0462,1.54207 92.49804,10.32332 173.15504,40.13275 223.98718,82.78179 13.53057,11.35239 32.58228,31.61318 39.61938,42.13375 15.29307,22.86339 25.29707,51.63923 25.29707,72.76536 v 6.93875 H 404.89817 55.73787 Z"
       id="path4567"
       inkscape:connector-curvature="0"
       transform="matrix(0.26458333,0,0,0.26458333,0,82.158316)" />
    <ellipse
       style="fill:#000036;fill-opacity:1;stroke:none;stroke-width:1.97156847;stroke-miterlimit:4;stroke-dasharray:none;stroke-opacity:1"
       id="path4581"
       cx="167.92982"
       cy="180.51614"
       rx="5.7825804"
       ry="6.04985" />
    <ellipse
       style="fill:#ffffff;fill-opacity:1;stroke:#ffffff;stroke-width:1.32291663;stroke-miterlimit:4;stroke-dasharray:none;stroke-opacity:1"
       id="path4587"
       cx="161.02112"
       cy="146.16061"
       rx="10.583333"
       ry="15.875" />
    <path
       style="fill:#ffffff;fill-opacity:1;stroke:#ffffff;stroke-width:7.96395826;stroke-linecap:butt;stroke-linejoin:miter;stroke-miterlimit:4;stroke-dasharray:none;stroke-opacity:1"
       d="m 18.229737,201.74998 c 0.146634,0 0.217361,1.42891 0.395293,4.10448 0.149068,2.24155 0.4243,7.01652 2.065993,11.08849 0.883551,2.21548 2.274816,4.52122 4.278466,6.55951 2.166809,2.21339 4.927558,4.03824 8.234023,5.60087 0,0 5e-6,1e-5 5e-6,1e-5 8.804559,4.15686 18.382387,5.93841 30.827771,7.54041 0,0 8e-6,0 8e-6,0 12.851029,1.63604 26.479698,2.32556 41.398044,2.16513 0.47298,-0.005 0.94524,-0.011 1.41676,-0.0177 14.75935,-0.21047 31.85398,-1.44841 44.31937,-2.13308 0,0 1e-5,0 1e-5,0 6.78873,-0.3735 12.7506,-0.64532 18.75657,-0.64315 5.24116,-0.002 9.78159,0.15495 14.27086,1.00223 3.33138,0.61351 6.28557,1.64745 8.66944,3.47142 1.99069,1.54176 3.23775,3.60312 3.80897,5.60999 0.68896,2.4671 0.56494,4.94332 0.36633,6.73055 -0.5153,4.71442 -1.53946,7.12872 -1.5371,7.12915 -0.16558,-0.0301 0.37889,-2.59046 0.58515,-7.20281 0.0746,-1.74128 0.0723,-4.11478 -0.65335,-6.27833 -0.57228,-1.73561 -1.73985,-3.49237 -3.49454,-4.75287 -2.14901,-1.56741 -4.86187,-2.38389 -8.05981,-2.9225 -4.33559,-0.70982 -8.72205,-0.75345 -13.93753,-0.66499 -5.96552,0.10629 -11.83186,0.46241 -18.62967,0.91416 0,0 -1e-5,0 -1e-5,0 -12.65521,0.84222 -29.32051,2.16455 -44.42633,2.38699 -0.47471,0.007 -0.95021,0.0131 -1.42647,0.0183 -15.008785,0.16349 -28.792644,-0.60811 -41.747519,-2.39077 -3e-6,0 -5e-6,0 -8e-6,0 -12.471724,-1.69893 -22.359408,-3.75428 -31.349382,-8.22457 0,0 -5e-6,0 -5e-6,0 -3.428623,-1.70281 -6.321706,-3.74732 -8.592367,-6.19533 -2.105441,-2.27821 -3.511706,-4.81266 -4.362118,-7.22091 -1.564554,-4.48222 -1.555212,-9.23984 -1.509811,-11.55326 0.05292,-2.6968 0.230446,-4.12139 0.332957,-4.12139 z"
       id="path4635"
       inkscape:connector-curvature="0"
       inkscape:path-effect="#path-effect4637;#path-effect4639"
       inkscape:original-d="m 18.229737,201.74998 c 2.64e-4,10.58306 2.64e-4,21.16639 0,31.74997 29.105159,3.5276 58.208599,7.05529 87.312473,10.58332 31.75002,-4.40995 63.50027,-8.81969 95.25,-13.22914 -1.7636,9.70102 -3.5275,19.40249 -5.29166,29.10414" />
    <path
       style="fill:#000036;fill-opacity:1;stroke:#ffffff;stroke-width:0.14473198;stroke-miterlimit:4;stroke-dasharray:none;stroke-opacity:1"
       id="path4650"
       sodipodi:type="arc"
       sodipodi:cx="-198.4375"
       sodipodi:cy="201.74998"
       sodipodi:rx="11.876611"
       sodipodi:ry="11.111614"
       sodipodi:start="4.842679"
       sodipodi:end="0"
       d="m -196.89447,190.73255 a 11.876611,11.111614 0 0 1 10.33358,11.01743 h -11.87661 z"
       transform="scale(-1,1)" />
    <rect
       style="fill:none;fill-opacity:1;stroke:#ffffff;stroke-width:2.69028331;stroke-miterlimit:4;stroke-dasharray:none;stroke-opacity:1"
       id="rect4654"
       width="193.14584"
       height="193.14581"
       x="10.583333"
       y="93.270813"
       rx="35.665833"
       ry="35.665833" />
  </g>
</svg>
